<svg xmlns="http://www.w3.org/2000/svg" viewBox="0 0 512 512" role="img" aria-label="ES Gamma Analyzer">
  <defs>
    <linearGradient id="bg" x1="0" y1="0" x2="1" y2="1">
      <stop offset="0" stop-color="#0d1b2a"/>
      <stop offset="0.55" stop-color="#1b263b"/>
      <stop offset="1" stop-color="#415a77"/>
    </linearGradient>
    <linearGradient id="teal" x1="0" y1="0" x2="0" y2="1">
      <stop offset="0" stop-color="#5eead4"/>
      <stop offset="1" stop-color="#2dd4bf"/>
    </linearGradient>
    <linearGradient id="ring" x1="0" y1="0" x2="1" y2="1">
      <stop offset="0" stop-color="#778da9" stop-opacity="0.9"/>
      <stop offset="1" stop-color="#2dd4bf" stop-opacity="0.6"/>
    </linearGradient>
    <filter id="glow" x="-20%" y="-20%" width="140%" height="140%">
      <feGaussianBlur stdDeviation="6" result="blur"/>
      <feMerge>
        <feMergeNode in="blur"/>
        <feMergeNode in="SourceGraphic"/>
      </feMerge>
    </filter>
  </defs>

  <!-- Background tile -->
  <rect x="16" y="16" width="480" height="480" rx="96" ry="96" fill="url(#bg)"/>
  <rect x="16" y="16" width="480" height="480" rx="96" ry="96" fill="none" stroke="url(#ring)" stroke-width="4"/>

  <!-- Subtle grid lines (chart paper feel) -->
  <g stroke="#778da9" stroke-opacity="0.10" stroke-width="2">
    <line x1="80"  y1="160" x2="432" y2="160"/>
    <line x1="80"  y1="256" x2="432" y2="256"/>
    <line x1="80"  y1="352" x2="432" y2="352"/>
    <line x1="160" y1="96"  x2="160" y2="416"/>
    <line x1="256" y1="96"  x2="256" y2="416"/>
    <line x1="352" y1="96"  x2="352" y2="416"/>
  </g>

  <!-- Candles: green = support side, red = resistance side -->
  <g>
    <!-- bullish candle -->
    <line x1="128" y1="300" x2="128" y2="396" stroke="#2dd4bf" stroke-width="4" stroke-linecap="round"/>
    <rect x="116" y="320" width="24" height="56" rx="4" fill="#2dd4bf"/>
    <!-- bullish candle -->
    <line x1="176" y1="276" x2="176" y2="384" stroke="#2dd4bf" stroke-width="4" stroke-linecap="round"/>
    <rect x="164" y="296" width="24" height="64" rx="4" fill="#2dd4bf"/>
    <!-- bearish candle (resistance) -->
    <line x1="336" y1="120" x2="336" y2="244" stroke="#fb7185" stroke-width="4" stroke-linecap="round"/>
    <rect x="324" y="140" width="24" height="80" rx="4" fill="#fb7185"/>
    <!-- bearish candle -->
    <line x1="384" y1="148" x2="384" y2="252" stroke="#fb7185" stroke-width="4" stroke-linecap="round"/>
    <rect x="372" y="172" width="24" height="64" rx="4" fill="#fb7185"/>
  </g>

  <!-- Gamma flip line crossing the middle -->
  <line x1="64" y1="256" x2="448" y2="256" stroke="#fbbf24" stroke-width="3" stroke-dasharray="10 8" stroke-opacity="0.65"/>

  <!-- Central Gamma glyph γ -->
  <g filter="url(#glow)">
    <text x="256" y="332"
          text-anchor="middle"
          font-family="Georgia, 'Times New Roman', serif"
          font-size="340"
          font-weight="700"
          fill="url(#teal)">γ</text>
  </g>
</svg>
